<svg xmlns="http://www.w3.org/2000/svg" viewBox="0 0 512 512" style="height: 128px; width: 128px;"><defs><radialGradient id="cathelineau-swordman-gradient-1"><stop offset="0%" stop-color="#f3eb34" stop-opacity="1"></stop><stop offset="100%" stop-color="#fbfcff" stop-opacity="1"></stop></radialGradient></defs><path d="M0 0h512v512H0z" fill="#000" fill-opacity="1"></path><g class="" transform="translate(-29,31)" style=""><path d="M467.838 35.848c-53.208 3.518-101.284 8.091-139.14 50.18 9.869 29.563 26.168 65.884 46.613 95.234 20.504 29.436 44.758 50.59 68.61 53.297 35.265-33.057 53.699-112.599 23.917-198.711zM189.8 46.02a70.936 54.43 66.039 0 0-15.987 3.638 70.936 54.43 66.039 0 0-20.931 86.928 70.936 54.43 66.039 0 0 51.62 45.443c2.392 57.507-19.428 43.883-70.534 73.606l15.888 31.69c35.566-13.731 51.844-19.703 69.27-44.317 32.586 93.92-1.874 157.236-23.688 247.078l33.711 4.916c23.698-57.247 55.114-122.355 62.438-181.422 48.937 51.134 77.498 114.641 114.65 169.143l35.82-14.75c-45.81-80.724-65.633-128.371-150.591-262.19 26.819-.194 49.826-6.592 70.683-15.422-7.036-10.105-13.565-20.882-19.529-31.886-28.223 12.083-59.028 16.997-90.14.855a70.936 54.43 66.039 0 0-.118-66.955 70.936 54.43 66.039 0 0-62.562-46.355zM15.47 87.309l3.287 34.09 52.6 107.77 21.568-10.526-52.383-107.325-25.072-24.01zm97.066 139.566l-46.756 22.822 3.137 18.496 56.271-27.464-12.652-13.854zm2.318 36.701l-21.568 10.528 16.668 34.15 21.568-10.527-16.668-34.15z" fill="url(#cathelineau-swordman-gradient-1)" transform="translate(25.6, 25.6) scale(0.9, 0.9) rotate(0, 256, 256) skewX(0) skewY(0)"></path></g><g class="" transform="translate(371,-21)" style=""><g transform="translate(16, 16) scale(0.5, 0.5) rotate(0, 128, 128)"><circle cx="128" cy="128" r="128" fill="#000" fill-opacity="1"></circle><circle stroke="#fb0206" stroke-opacity="1" fill="#000" fill-opacity="1" stroke-width="18" cx="128" cy="128" r="101"></circle><path fill="#fb0206" fill-opacity="1" d="M94.8 74.51c-5.94 12.13-36.93 82.99-34.05 92.99 4.99 17.4 121.25 7.3 139.05-7.4 4-2.4 6-15.1.4-23.5-15.8-23.6-57.7-24.4-90.5 2.1-4.1 3.3-8 7-11.72 11.2 1.84-19.2 7.02-44.9 19.62-63.16l34.1-4.92-1.2-12.67c-16.1-8.41-47.3-11.9-55.7 5.36z"></path></g></g></svg>