<svg xmlns="http://www.w3.org/2000/svg" viewBox="0 0 512 512" style="height: 128px; width: 128px;"><defs><radialGradient id="delapouite-healing-gradient-1"><stop offset="0%" stop-color="#34f343" stop-opacity="1"></stop><stop offset="100%" stop-color="#35a635" stop-opacity="1"></stop></radialGradient></defs><path d="M0 0h512v512H0z" fill="#000" fill-opacity="1"></path><g class="" transform="translate(-29,31)" style=""><path d="M250.9 18.9c-23.9 2.99-45.3 30.65-45.3 66.99 0 19.91 6.8 37.41 16.8 49.61l12.2 14.5-18.7 3.5c-13 2.5-22.6 9.5-30.7 20.8-8.5 11.5-14.8 26.9-19.1 45.2-8 32.7-9.9 72.7-9.9 108.2h43.6l11.7 160.5c30.4 7 63.1 6.5 92.3 0l10.7-160.5H356c0-35.7-.5-76.4-7.8-109.7-3.9-17.9-10-33.7-18.2-45.1-8.2-11.1-18.5-17.8-33.3-20.1l-18.9-3 11.9-14.9c9.9-12.1 16.4-29.6 16.4-49.01 0-38.54-24-66.99-50.3-66.99h-4.9zm145 3.59v41.85h-41.8v50.16h41.8v41.6h49.9v-41.6h41.9V64.34h-41.9V22.49h-49.9zM52.92 62.89v30.58H22.39v36.63h30.53v30.4h36.4v-30.4h30.58V93.47H89.32V62.89h-36.4zM92.63 199.7v21.8H70.75v26.3h21.88v21.9h26.27v-21.9h21.8v-26.3h-21.8v-21.8H92.63zm355.07 62.4v21.8h-21.9v26.3h21.9v21.9H474v-21.9h21.8v-26.3H474v-21.8h-26.3zm-307.5 99.4v15h-15v18h15v15h18.1v-15h15v-18h-15v-15h-18.1zm230 45.8v15h-15v18h15v15h18v-15h15v-18h-15v-15h-18zM49.32 431.8v15h-15v18h15v15h18.01v-15h15v-18h-15v-15H49.32z" fill="url(#delapouite-healing-gradient-1)" transform="translate(25.6, 25.6) scale(0.9, 0.9) rotate(0, 256, 256) skewX(0) skewY(0)"></path></g><g class="" transform="translate(371,-21)" style=""><g transform="translate(16, 16) scale(0.5, 0.5) rotate(0, 128, 128)"><circle cx="128" cy="128" r="128" fill="#000" fill-opacity="1"></circle><circle stroke="#fb0206" stroke-opacity="1" fill="#000" fill-opacity="1" stroke-width="18" cx="128" cy="128" r="101"></circle><path fill="#fb0206" fill-opacity="1" d="M128 204c16-24 68-78 68-94 0-24-20-39.824-36-40-16 0-32 10-32 30 0-20-16-30-32-30-16-.176-36 16-36 40 0 16 52 70 68 94z"></path></g></g></svg>