<svg xmlns="http://www.w3.org/2000/svg" viewBox="0 0 512 512" style="height: 128px; width: 128px;"><defs><filter id="shadow-1" height="300%" width="300%" x="-100%" y="-100%"><feFlood flood-color="#999" result="flood"></feFlood><feComposite in="flood" in2="SourceGraphic" operator="atop" result="composite"></feComposite><feOffset result="offset"></feOffset><feComposite in="SourceGraphic" in2="offset" operator="over"></feComposite></filter><filter id="shadow-2" height="300%" width="300%" x="-100%" y="-100%"><feFlood flood-color="#999" result="flood"></feFlood><feComposite in="flood" in2="SourceGraphic" operator="atop" result="composite"></feComposite><feOffset result="offset"></feOffset><feComposite in="SourceGraphic" in2="offset" operator="over"></feComposite></filter><filter id="shadow-3" height="300%" width="300%" x="-100%" y="-100%"><feFlood flood-color="#999" result="flood"></feFlood><feComposite in="flood" in2="SourceGraphic" operator="atop" result="composite"></feComposite><feOffset result="offset"></feOffset><feComposite in="SourceGraphic" in2="offset" operator="over"></feComposite></filter><filter id="shadow-4" height="300%" width="300%" x="-100%" y="-100%"><feFlood flood-color="#999" result="flood"></feFlood><feComposite in="flood" in2="SourceGraphic" operator="atop" result="composite"></feComposite><feOffset result="offset"></feOffset><feComposite in="SourceGraphic" in2="offset" operator="over"></feComposite></filter><filter id="shadow-5" height="300%" width="300%" x="-100%" y="-100%"><feFlood flood-color="#999" result="flood"></feFlood><feComposite in="flood" in2="SourceGraphic" operator="atop" result="composite"></feComposite><feOffset result="offset"></feOffset><feComposite in="SourceGraphic" in2="offset" operator="over"></feComposite></filter><filter id="shadow-6" height="300%" width="300%" x="-100%" y="-100%"><feFlood flood-color="#999" result="flood"></feFlood><feComposite in="flood" in2="SourceGraphic" operator="atop" result="composite"></feComposite><feOffset result="offset"></feOffset><feComposite in="SourceGraphic" in2="offset" operator="over"></feComposite></filter><filter id="shadow-7" height="300%" width="300%" x="-100%" y="-100%"><feFlood flood-color="#999" result="flood"></feFlood><feComposite in="flood" in2="SourceGraphic" operator="atop" result="composite"></feComposite><feOffset result="offset"></feOffset><feComposite in="SourceGraphic" in2="offset" operator="over"></feComposite></filter><filter id="shadow-8" height="300%" width="300%" x="-100%" y="-100%"><feFlood flood-color="#999" result="flood"></feFlood><feComposite in="flood" in2="SourceGraphic" operator="atop" result="composite"></feComposite><feOffset result="offset"></feOffset><feComposite in="SourceGraphic" in2="offset" operator="over"></feComposite></filter><linearGradient x1="0" x2="1" y1="1" y2="0" id="lorc-barbed-nails-gradient-8"><stop offset="0%" stop-color="#8e1212" stop-opacity="1"></stop><stop offset="100%" stop-color="#ff0404" stop-opacity="1"></stop></linearGradient></defs><path d="M0 0h512v512H0z" fill="#000" fill-opacity="1"></path><g class="" transform="translate(-29,31)" style=""><path d="M14.922 14.21V197.01c105.426 65.67 171.442 156.49 109.213 299.017 71.456-76.97 99.707-180.437 72.418-273.904l-43.217 28.034c-8.593-32.65-25.23-63.915-44.04-88.097-18.808-24.182-35.91-41.747-54.142-58.317l12.57-13.83c26.36 23.958 50.918 50.426 71.26 81.727 122.584 56.688 209.387 144.066 155.1 301.027 65.208-82.512 85.325-187.03 50.81-277.992l-41.466 30.37c-9.225-26.42-23.88-51.128-43.455-74.562-31.626-34.863-68.584-59.443-108.29-79.904l8.56-16.61c46.226 23.82 90.127 53.793 126.312 98.87C399.033 189.56 479.498 260.64 456.44 409.59c49.442-93.163 50.723-200.15.585-283.248l-35.04 38.547C379.276 89.6 288.66 35.463 159.76 14.21H14.924z" fill="#7fb257" fill-opacity="1" transform="translate(25.6, 25.6) scale(0.9, 0.9) rotate(0, 256, 256) skewX(0) skewY(0)" filter="url(#shadow-1)"></path></g></svg>