<svg xmlns="http://www.w3.org/2000/svg" viewBox="0 0 512 512" style="height: 128px; width: 128px;"><defs><filter id="shadow-1" height="300%" width="300%" x="-100%" y="-100%"><feFlood flood-color="#999" result="flood"></feFlood><feComposite in="flood" in2="SourceGraphic" operator="atop" result="composite"></feComposite><feOffset result="offset"></feOffset><feComposite in="SourceGraphic" in2="offset" operator="over"></feComposite></filter><filter id="shadow-2" height="300%" width="300%" x="-100%" y="-100%"><feFlood flood-color="#999" result="flood"></feFlood><feComposite in="flood" in2="SourceGraphic" operator="atop" result="composite"></feComposite><feOffset result="offset"></feOffset><feComposite in="SourceGraphic" in2="offset" operator="over"></feComposite></filter><filter id="shadow-3" height="300%" width="300%" x="-100%" y="-100%"><feFlood flood-color="#999" result="flood"></feFlood><feComposite in="flood" in2="SourceGraphic" operator="atop" result="composite"></feComposite><feOffset result="offset"></feOffset><feComposite in="SourceGraphic" in2="offset" operator="over"></feComposite></filter><filter id="shadow-4" height="300%" width="300%" x="-100%" y="-100%"><feFlood flood-color="#999" result="flood"></feFlood><feComposite in="flood" in2="SourceGraphic" operator="atop" result="composite"></feComposite><feOffset result="offset"></feOffset><feComposite in="SourceGraphic" in2="offset" operator="over"></feComposite></filter><filter id="shadow-5" height="300%" width="300%" x="-100%" y="-100%"><feFlood flood-color="#999" result="flood"></feFlood><feComposite in="flood" in2="SourceGraphic" operator="atop" result="composite"></feComposite><feOffset result="offset"></feOffset><feComposite in="SourceGraphic" in2="offset" operator="over"></feComposite></filter><filter id="shadow-6" height="300%" width="300%" x="-100%" y="-100%"><feFlood flood-color="#999" result="flood"></feFlood><feComposite in="flood" in2="SourceGraphic" operator="atop" result="composite"></feComposite><feOffset result="offset"></feOffset><feComposite in="SourceGraphic" in2="offset" operator="over"></feComposite></filter><filter id="shadow-7" height="300%" width="300%" x="-100%" y="-100%"><feFlood flood-color="#999" result="flood"></feFlood><feComposite in="flood" in2="SourceGraphic" operator="atop" result="composite"></feComposite><feOffset result="offset"></feOffset><feComposite in="SourceGraphic" in2="offset" operator="over"></feComposite></filter><filter id="shadow-8" height="300%" width="300%" x="-100%" y="-100%"><feFlood flood-color="#999" result="flood"></feFlood><feComposite in="flood" in2="SourceGraphic" operator="atop" result="composite"></feComposite><feOffset result="offset"></feOffset><feComposite in="SourceGraphic" in2="offset" operator="over"></feComposite></filter><linearGradient id="delapouite-neck-bite-gradient-1" x1="0" x2="1" y1="1" y2="0"><stop offset="0%" stop-color="#0cf41b" stop-opacity="1"></stop><stop offset="100%" stop-color="#ff0404" stop-opacity="1"></stop></linearGradient><linearGradient x1="0" x2="1" y1="1" y2="0" id="delapouite-neck-bite-gradient-7"><stop offset="0%" stop-color="#4f0a0a" stop-opacity="1"></stop><stop offset="100%" stop-color="#ff0404" stop-opacity="1"></stop></linearGradient><linearGradient x1="0" x2="1" y1="1" y2="0" id="delapouite-neck-bite-gradient-8"><stop offset="0%" stop-color="#8e1212" stop-opacity="1"></stop><stop offset="100%" stop-color="#ff0404" stop-opacity="1"></stop></linearGradient></defs><path d="M0 0h512v512H0z" fill="#000" fill-opacity="1"></path><g class="" transform="translate(-29,31)" style=""><g transform="translate(486.4, 25.6) scale(-0.9, 0.9) rotate(0, 256, 256) skewX(0) skewY(0)"><path d="M18 18L18 287.635C30.326 282.981 42.576 277.88 54.59 272.303C74.873 255.96 86.087 243.798 92.193 228.801C98.687 212.854 99.836 192.136 97.439 157.871L115.394 156.611C117.851 191.739 117.092 215.385 108.862 235.593C107.43 239.111 105.772 242.47 103.902 245.73C103.912 245.724 103.922 245.72 103.929 245.713C97.263 262.519 55.972 303.65 17.997 330.129L17.997 494L494 494L494 469.535C436.3 464.563 373.212 457.312 315.47 431.789C243.94 400.171 181.754 339.616 152.518 223.859C150.694 216.639 151.628 209.075 153.318 199.677C155.008 190.279 157.794 179.297 161.201 167.095C168.016 142.691 177.329 113.455 185.337 84.105C191.559 61.302 196.955 38.422 199.833 17.999L18 17.999Z" class="" fill="#f9f5f5" filter="url(#shadow-2)" fill-opacity="1"></path><path d="M271.326 61.703C265.649 62.378 256.846 85.863 262.946 92.641C280.786 112.464 336.596 125.038 338.951 117.606C341.195 110.532 294.248 81.263 272.937 62.239C272.769 62.089 272.593 61.975 272.415 61.889C272.07 61.719 271.705 61.659 271.327 61.704Z" class="" fill="#fd0303" filter="url(#shadow-3)" fill-opacity="1"></path><path d="M485.744 132.143C457.304 134.823 402.146 130.553 399.756 137.578C397.246 144.958 449.641 167.928 475.76 162.545C485.284 160.582 492.433 133.258 486.375 132.165C486.181 132.13 485.969 132.122 485.745 132.143Z" class="" fill="#f60505" filter="url(#shadow-4)" fill-opacity="1"></path><path d="M277.896 201.253C265.171 213.89 255.406 244.363 257.74 261.996L288.043 221.479L293.15 256.886L313.375 246.739L323.521 266.966L343.747 256.816L353.897 277.044L379.159 251.712L379.229 302.308C390.933 289.332 402.601 259.488 399.386 241.564C356.21 237.628 315.476 225.027 277.896 201.25Z" class="" fill="#f40404" filter="url(#shadow-5)" fill-opacity="1"></path><path d="M255.588 268.549C243.254 281.361 238.661 294.589 241.416 312.309C274.233 343.829 316.81 357.565 363.146 351.886C376.363 339.359 379.046 325.508 377.314 308.12L352.877 331.725L342.561 311.547L322.397 321.817L312.127 301.65L291.967 311.92L281.697 291.758L261.581 302.043L255.591 268.549L255.589 268.549Z" class="" fill="#f20808" filter="url(#shadow-6)" fill-opacity="1"></path><path d="M128 272C132.836 271.965 138.04 273.717 142.506 276.88C151.988 283.595 155.644 294.73 150.672 301.748C150.514 301.958 150.348 302.158 150.176 302.358C145.972 332.595 145.898 342.835 150.946 373.074C153.101 393.336 144.671 392.184 144 392.916C144 392.916 129.353 392.124 132.947 373.074C137.214 344.067 137.532 335.257 134.187 306.631C130.825 305.899 127.487 304.406 124.502 302.301C115.02 295.586 111.364 284.453 116.336 277.433C118.769 273.998 122.976 272.039 128 272.003L128 272Z" class="" fill="url(#delapouite-neck-bite-gradient-7)" filter="url(#shadow-7)"></path><path d="M194.66 359.72C199.496 359.687 204.7 361.436 209.166 364.6C218.648 371.315 222.304 382.45 217.332 389.47C217.174 389.678 217.008 389.88 216.836 390.078C212.632 420.318 212.558 428.556 217.606 458.795C220.392 479.057 215.963 485.042 208.936 484.957C201.908 484.873 196.012 477.845 199.606 458.795C203.873 429.788 204.192 422.978 200.848 394.352C197.485 393.618 194.148 392.125 191.162 390.02C181.68 383.304 178.024 372.17 182.996 365.15C185.429 361.715 189.636 359.758 194.66 359.72Z" class="selected" fill="url(#delapouite-neck-bite-gradient-8)" filter="url(#shadow-8)"></path></g></g><g class="" transform="translate(371,-21)" style=""><g transform="translate(16, 16) scale(0.5, 0.5) rotate(0, 128, 128)"><circle cx="128" cy="128" r="128" fill="#000" fill-opacity="1"></circle><circle stroke="#fb0206" stroke-opacity="1" fill="#000" fill-opacity="1" stroke-width="18" cx="128" cy="128" r="101"></circle><path fill="#fb0206" fill-opacity="1" d="M145.2 58.45c-8.3 12.4-10.3 22.35 2.5 21.1 10.4-1.02 7.2-10.11-2.5-21.1zm-38.3.55c-6.7 13.14-7.73 23.5 3.7 21.69 9.3-1.45 5.6-10.72-3.7-21.69zm69.7 17.45c-12.8 15.11-11.2 26.75-.4 27.95 11.6.3 11.8-12.14.4-27.95zm-99.87 4.9C68.85 95.5 68.37 106 79.88 105.2c14.04-1 8.37-11.54-3.15-23.85zm68.27 4.9c-17.5.72-15.7 37.15.8 36.55 16.3-.6 16.3-37.25-.8-36.55zm-33.6.59h-.7c-17.48 1.5-13.91 37.96 2.6 36.46 16.2-1.4 14.4-36.81-1.9-36.49zM85.34 112.9c-.52 0-.94.1-1.47.1-17.33 2.2-11.98 38.4 4.41 36.4 15.72-2 12.82-36.3-2.94-36.5zm87.36.5c-17.5-.4-18.3 36.2-1.6 36.5 16.3.3 18.8-36.2 1.6-36.5zm-45.4 21.1c-17.9.4-4.1 18.9-35.65 29.6-24.49 8.3-9.67 33.2 11.35 33.4 11.6.1 15.6-9 25-9 10.7.1 11.5 8.2 27.1 8.2 20.1.1 31.6-25 8.8-33.6-29.1-10.9-16.9-28.4-35.7-28.6z"></path></g></g></svg>