<svg xmlns="http://www.w3.org/2000/svg" viewBox="0 0 512 512" style="height: 128px; width: 128px;"><defs><filter id="shadow-1" height="300%" width="300%" x="-100%" y="-100%"><feFlood flood-color="#999" result="flood"></feFlood><feComposite in="flood" in2="SourceGraphic" operator="atop" result="composite"></feComposite><feOffset result="offset"></feOffset><feComposite in="SourceGraphic" in2="offset" operator="over"></feComposite></filter><filter id="shadow-2" height="300%" width="300%" x="-100%" y="-100%"><feFlood flood-color="#999" result="flood"></feFlood><feComposite in="flood" in2="SourceGraphic" operator="atop" result="composite"></feComposite><feOffset result="offset"></feOffset><feComposite in="SourceGraphic" in2="offset" operator="over"></feComposite></filter><filter id="shadow-3" height="300%" width="300%" x="-100%" y="-100%"><feFlood flood-color="#999" result="flood"></feFlood><feComposite in="flood" in2="SourceGraphic" operator="atop" result="composite"></feComposite><feOffset result="offset"></feOffset><feComposite in="SourceGraphic" in2="offset" operator="over"></feComposite></filter><filter id="shadow-4" height="300%" width="300%" x="-100%" y="-100%"><feFlood flood-color="#999" result="flood"></feFlood><feComposite in="flood" in2="SourceGraphic" operator="atop" result="composite"></feComposite><feOffset result="offset"></feOffset><feComposite in="SourceGraphic" in2="offset" operator="over"></feComposite></filter><filter id="shadow-5" height="300%" width="300%" x="-100%" y="-100%"><feFlood flood-color="#999" result="flood"></feFlood><feComposite in="flood" in2="SourceGraphic" operator="atop" result="composite"></feComposite><feOffset result="offset"></feOffset><feComposite in="SourceGraphic" in2="offset" operator="over"></feComposite></filter><filter id="shadow-6" height="300%" width="300%" x="-100%" y="-100%"><feFlood flood-color="#999" result="flood"></feFlood><feComposite in="flood" in2="SourceGraphic" operator="atop" result="composite"></feComposite><feOffset result="offset"></feOffset><feComposite in="SourceGraphic" in2="offset" operator="over"></feComposite></filter><filter id="shadow-7" height="300%" width="300%" x="-100%" y="-100%"><feFlood flood-color="#999" result="flood"></feFlood><feComposite in="flood" in2="SourceGraphic" operator="atop" result="composite"></feComposite><feOffset result="offset"></feOffset><feComposite in="SourceGraphic" in2="offset" operator="over"></feComposite></filter><filter id="shadow-8" height="300%" width="300%" x="-100%" y="-100%"><feFlood flood-color="#999" result="flood"></feFlood><feComposite in="flood" in2="SourceGraphic" operator="atop" result="composite"></feComposite><feOffset result="offset"></feOffset><feComposite in="SourceGraphic" in2="offset" operator="over"></feComposite></filter><radialGradient id="lorc-thunder-struck-gradient-2"><stop offset="0%" stop-color="#edf40c" stop-opacity="1"></stop><stop offset="100%" stop-color="#f2f20b" stop-opacity="1"></stop></radialGradient><linearGradient x1="0" x2="1" y1="1" y2="0" id="lorc-thunder-struck-gradient-7"><stop offset="0%" stop-color="#4f0a0a" stop-opacity="1"></stop><stop offset="100%" stop-color="#ff0404" stop-opacity="1"></stop></linearGradient><linearGradient x1="0" x2="1" y1="1" y2="0" id="lorc-thunder-struck-gradient-8"><stop offset="0%" stop-color="#8e1212" stop-opacity="1"></stop><stop offset="100%" stop-color="#ff0404" stop-opacity="1"></stop></linearGradient></defs><path d="M0 0h512v512H0z" fill="#000" fill-opacity="1"></path><g class="" transform="translate(-29,31)" style=""><g transform="translate(25.6, 25.6) scale(0.9, 0.9) rotate(0, 256, 256) skewX(0) skewY(0)"><path d="M20.22 21.75L20.22 87.25L112.22 157.875L52.094 215.969L287.75 373.469L203.906 367.624L297.156 444.154L219.594 449.624L333.094 490.28L328.469 421.25L306.686 421.25C306.686 383.46 305.939 329.287 339.186 321.25C334.089 313.602 330.999 303.6 330.999 292.625C330.999 268.632 345.783 249.155 363.999 249.155C382.215 249.155 396.969 268.63 396.969 292.625C396.969 303.872 393.729 314.097 388.405 321.813C418.919 330.451 421.28 383.603 421.28 421.25L398.313 421.25L393.063 491.063L484.969 431.469L435.905 435.843L493.499 330.313L433.343 347.218L490.843 254.404L422.313 283.217L476.53 180.872L403.875 223.935L422.405 100.528L370.688 216.468L299.563 72.436L322.563 237.498L256.313 184.998L298.781 270.748L178.345 193.778L251.939 139.123L123.188 21.75L20.218 21.75Z" class="selected" fill="url(#lorc-thunder-struck-gradient-2)" filter="url(#shadow-2)"></path></g></g><g class="" transform="translate(371,-21)" style=""><g transform="translate(16, 16) scale(0.5, 0.5) rotate(0, 128, 128)"><circle cx="128" cy="128" r="128" fill="#000000" fill-opacity="1"></circle><circle stroke="#fb0206" stroke-opacity="1" fill="#000000" fill-opacity="1" stroke-width="18" cx="128" cy="128" r="101"></circle><path fill="#fb0206" fill-opacity="1" d="M101.265 58.881h53.377l-28.835 51.29 53.1 5.232-78.643 81.716 24.95-62.497-48.121-5.661z"></path></g></g></svg>